<svg width="128" height="52" viewBox="0 0 128 52" fill="none" xmlns="http://www.w3.org/2000/svg">
<path d="M0.84736 47.8171H3.35555V44.7214H8.64308V47.8171H11.1513V39.6373H8.64308V42.5522H3.35555V39.6373H0.84736V47.8171ZM12.6598 44.9474C12.6598 47.3426 14.0043 47.9075 16.2639 47.9075H20.2861C22.5457 47.9075 23.8902 47.3426 23.8902 44.9474V42.507C23.8902 40.1118 22.5457 39.5469 20.2861 39.5469H16.2639C14.0043 39.5469 12.6598 40.1118 12.6598 42.507V44.9474ZM15.2358 43.2866C15.2358 42.2698 15.4844 41.6484 16.8062 41.6484H19.7438C21.0656 41.6484 21.3142 42.2698 21.3142 43.2866V44.1678C21.3142 45.3541 21.0656 45.8061 19.8793 45.8061H16.6707C15.4844 45.8061 15.2358 45.3541 15.2358 44.1678V43.2866ZM25.4076 47.8171H33.3954C34.8302 47.8171 35.8922 47.4443 35.8922 45.6479C35.8922 44.4164 35.4855 43.8289 34.3896 43.6933V43.6594C35.0901 43.4561 35.5985 43.1849 35.5985 41.7839C35.5985 40.1796 34.6268 39.6373 32.6271 39.6373H25.4076V47.8171ZM27.9158 44.5746H32.4124C32.9547 44.5746 33.3163 44.6989 33.3163 45.2525C33.3163 45.727 32.9547 45.8513 32.4124 45.8513H27.9158V44.5746ZM27.9158 41.6032H32.3559C32.8191 41.6032 33.0903 41.7726 33.0903 42.2472C33.0903 42.7104 32.8191 42.8799 32.3559 42.8799H27.9158V41.6032ZM37.4008 47.8171H45.3886C46.8235 47.8171 47.8855 47.4443 47.8855 45.6479C47.8855 44.4164 47.4787 43.8289 46.3828 43.6933V43.6594C47.0833 43.4561 47.5917 43.1849 47.5917 41.7839C47.5917 40.1796 46.6201 39.6373 44.6203 39.6373H37.4008V47.8171ZM39.909 44.5746H44.4056C44.948 44.5746 45.3095 44.6989 45.3095 45.2525C45.3095 45.727 44.948 45.8513 44.4056 45.8513H39.909V44.5746ZM39.909 41.6032H44.3492C44.8124 41.6032 45.0835 41.7726 45.0835 42.2472C45.0835 42.7104 44.8124 42.8799 44.3492 42.8799H39.909V41.6032ZM53.1563 47.8171H55.6645V44.97L60.1951 39.6373H57.1672L54.4104 42.9815L51.6537 39.6373H48.6258L53.1563 44.97V47.8171ZM61.1225 47.8171H70.2175V45.8513H63.6307V44.5407H69.7317V42.846H63.6307V41.5354H70.0706V39.6373H61.1225V47.8171ZM70.9683 47.8171H74.3351L77.0354 44.8457L79.7356 47.8171H83.1025L79.0916 43.7159L82.82 39.6373H79.5775L77.0354 42.4957L74.4933 39.6373H71.2507L74.9791 43.7159L70.9683 47.8171ZM84.0277 47.8171H86.5359V45.7609H91.5183C93.2922 45.7609 93.8232 44.3599 93.8232 43.1397V42.4392C93.8232 40.8349 93.247 39.6373 90.8631 39.6373H84.0277V47.8171ZM86.5359 41.671H90.2191C90.976 41.671 91.2472 41.9873 91.2472 42.5409V42.8573C91.2472 43.3431 91.0212 43.7272 90.4337 43.7272H86.5359V41.671ZM95.1824 47.8171H104.277V45.8513H97.6906V44.5407H103.792V42.846H97.6906V41.5354H104.131V39.6373H95.1824V47.8171ZM108.305 41.671H112.225C113.016 41.671 113.378 41.8065 113.378 42.5296V42.8008C113.378 43.3883 113.129 43.6594 112.451 43.6594H108.305V41.671ZM105.796 47.8171H108.305V45.6931H112.248C113.027 45.6931 113.276 45.9755 113.276 46.8342V47.8171H115.784V46.4275C115.784 45.083 115.163 44.7553 114.417 44.6198V44.5972C115.569 44.326 115.818 43.682 115.818 42.5861V42.0664C115.818 40.5976 115.298 39.6373 113.366 39.6373H105.796V47.8171ZM116.915 41.671H120.44V47.8171H122.948V41.671H126.473V39.6373H116.915V41.671Z" fill="#003057"/>
<path d="M128 34.6077L114.011 17.3039L128 0H111.505C110.858 0 110.292 0.323437 109.887 0.808592L105.359 6.46874L100.184 0H58.3801C57.7332 0 57.1672 0.404296 56.8437 0.970311L51.5879 11.1586H91.5323L96.4648 17.3039L91.5323 23.4492L82.557 34.6077H100.023L105.198 28.139L110.373 34.6077H128Z" fill="#003057"/>
<path d="M89.673 12.9375H47.9497L54.5801 0H41.0766C40.4298 0 39.8637 0.404296 39.6212 0.970311L33.4759 12.9375H26.2794L32.9099 0H19.4064C18.7595 0 18.1126 0.404296 17.87 0.970311L0.566162 34.6077H15.1208L21.8321 21.5086L21.7513 21.6703H28.9478L22.3173 34.6077H36.872L42.9364 22.6406C43.179 22.0746 43.745 21.6703 44.3919 21.6703H89.673L93.2308 17.3039L89.673 12.9375Z" fill="#C10230"/>
<path d="M46.0901 23.6917C45.4433 23.6917 44.9581 24.0959 44.6347 24.5811L39.5405 34.5268H79.5658L88.3795 23.6917H46.0901Z" fill="#003057"/>
</svg>
